HIERARCHY
ROOT Hips
{
	OFFSET -14.64140 90.27770 -84.91600
	CHANNELS 6 Xposition Yposition Zposition Zrotation Xrotation Yrotation
	JOINT Spine
	{
		OFFSET 0.00000 13.20850 -1.60436
		CHANNELS 3 Zrotation Xrotation Yrotation
		JOINT Spine1
		{
			OFFSET 0.00000 8.61716 0.00000
			CHANNELS 3 Zrotation Xrotation Yrotation
			JOINT Spine2
			{
				OFFSET 0.00000 8.61717 0.00000
				CHANNELS 3 Zrotation Xrotation Yrotation
				JOINT Spine3
				{
					OFFSET 0.00000 8.61717 0.00000
					CHANNELS 3 Zrotation Xrotation Yrotation
					JOINT Neck
					{
						OFFSET 0.00000 11.07920 1.10792
						CHANNELS 3 Zrotation Xrotation Yrotation
						JOINT Neck1
						{
							OFFSET 0.00000 7.08032 0.00000
							CHANNELS 3 Zrotation Xrotation Yrotation
							JOINT Head
							{
								OFFSET 0.00000 7.08031 0.00000
								CHANNELS 3 Zrotation Xrotation Yrotation
								End site
								{
									OFFSET 0.00000 0.00000 0.00000
								}
							}
						}
					}
					JOINT RightShoulder
					{
						OFFSET -0.01000 7.91373 5.19711
						CHANNELS 3 Zrotation Xrotation Yrotation
						JOINT RightArm
						{
							OFFSET -18.41580 0.00000 0.00000
							CHANNELS 3 Zrotation Xrotation Yrotation
							JOINT RightForeArm
							{
								OFFSET -29.11090 0.00000 0.00000
								CHANNELS 3 Zrotation Xrotation Yrotation
								JOINT RightHand
								{
									OFFSET -24.65040 0.00000 0.00000
									CHANNELS 3 Zrotation Xrotation Yrotation
									JOINT RightHandThumb1
									{
										OFFSET -5.35114 -0.85590 3.97906
										CHANNELS 3 Zrotation Xrotation Yrotation
										JOINT RightHandThumb2
										{
											OFFSET -4.52789 0.00000 0.00000
											CHANNELS 3 Zrotation Xrotation Yrotation
											JOINT RightHandThumb3
											{
												OFFSET -2.46976 0.00000 0.00000
												CHANNELS 3 Zrotation Xrotation Yrotation
												End site
												{
													OFFSET 0.00000 0.00000 0.00000
												}
											}
										}
									}
									JOINT RightHandIndex1
									{
										OFFSET -14.26970 0.00000 2.88139
										CHANNELS 3 Zrotation Xrotation Yrotation
										JOINT RightHandIndex2
										{
											OFFSET -5.48836 0.00000 0.00000
											CHANNELS 3 Zrotation Xrotation Yrotation
											JOINT RightHandIndex3
											{
												OFFSET -3.01859 0.00000 0.00000
												CHANNELS 3 Zrotation Xrotation Yrotation
												End site
												{
													OFFSET 0.00000 0.00000 0.00000
												}
											}
										}
									}
									JOINT RightHandMiddle1
									{
										OFFSET -14.26970 0.00000 -0.09147
										CHANNELS 3 Zrotation Xrotation Yrotation
										JOINT RightHandMiddle2
										{
											OFFSET -6.17441 0.00000 0.00000
											CHANNELS 3 Zrotation Xrotation Yrotation
											JOINT RightHandMiddle3
											{
												OFFSET -3.56743 0.00000 0.00000
												CHANNELS 3 Zrotation Xrotation Yrotation
												End site
												{
													OFFSET 0.00000 0.00000 0.00000
												}
											}
										}
									}
									JOINT RightHandRing1
									{
										OFFSET -12.69180 0.00000 -3.06433
										CHANNELS 3 Zrotation Xrotation Yrotation
										JOINT RightHandRing2
										{
											OFFSET -5.62556 0.00000 0.00000
											CHANNELS 3 Zrotation Xrotation Yrotation
											JOINT RightHandRing3
											{
												OFFSET -3.56744 0.00000 0.00000
												CHANNELS 3 Zrotation Xrotation Yrotation
												End site
												{
													OFFSET 0.00000 0.00000 0.00000
												}
											}
										}
									}
									JOINT RightHandPinky1
									{
										OFFSET -11.11390 0.00000 -6.03719
										CHANNELS 3 Zrotation Xrotation Yrotation
										JOINT RightHandPinky2
										{
											OFFSET -4.52789 0.00000 0.00000
											CHANNELS 3 Zrotation Xrotation Yrotation
											JOINT RightHandPinky3
											{
												OFFSET -2.46976 0.00000 0.00000
												CHANNELS 3 Zrotation Xrotation Yrotation
												End site
												{
													OFFSET 0.00000 0.00000 0.00000
												}
											}
										}
									}
								}
							}
						}
					}
					JOINT LeftShoulder
					{
						OFFSET 0.01000 7.91373 5.19711
						CHANNELS 3 Zrotation Xrotation Yrotation
						JOINT LeftArm
						{
							OFFSET 18.41580 0.00000 0.00000
							CHANNELS 3 Zrotation Xrotation Yrotation
							JOINT LeftForeArm
							{
								OFFSET 29.11090 0.00000 0.00000
								CHANNELS 3 Zrotation Xrotation Yrotation
								JOINT LeftHand
								{
									OFFSET 24.65040 0.00000 0.00000
									CHANNELS 3 Zrotation Xrotation Yrotation
									JOINT LeftHandThumb1
									{
										OFFSET 5.35114 -0.85590 3.97906
										CHANNELS 3 Zrotation Xrotation Yrotation
										JOINT LeftHandThumb2
										{
											OFFSET 4.52789 0.00000 0.00000
											CHANNELS 3 Zrotation Xrotation Yrotation
											JOINT LeftHandThumb3
											{
												OFFSET 2.46977 0.00000 0.00000
												CHANNELS 3 Zrotation Xrotation Yrotation
												End site
												{
													OFFSET 0.00000 0.00000 0.00000
												}
											}
										}
									}
									JOINT LeftHandIndex1
									{
										OFFSET 14.26970 0.00000 2.88139
										CHANNELS 3 Zrotation Xrotation Yrotation
										JOINT LeftHandIndex2
										{
											OFFSET 5.48836 0.00000 0.00000
											CHANNELS 3 Zrotation Xrotation Yrotation
											JOINT LeftHandIndex3
											{
												OFFSET 3.01859 0.00000 0.00000
												CHANNELS 3 Zrotation Xrotation Yrotation
												End site
												{
													OFFSET 0.00000 0.00000 0.00000
												}
											}
										}
									}
									JOINT LeftHandMiddle1
									{
										OFFSET 14.26970 0.00000 -0.09147
										CHANNELS 3 Zrotation Xrotation Yrotation
										JOINT LeftHandMiddle2
										{
											OFFSET 6.17440 0.00000 0.00000
											CHANNELS 3 Zrotation Xrotation Yrotation
											JOINT LeftHandMiddle3
											{
												OFFSET 3.56744 0.00000 0.00000
												CHANNELS 3 Zrotation Xrotation Yrotation
												End site
												{
													OFFSET 0.00000 0.00000 0.00000
												}
											}
										}
									}
									JOINT LeftHandRing1
									{
										OFFSET 12.69180 0.00000 -3.06433
										CHANNELS 3 Zrotation Xrotation Yrotation
										JOINT LeftHandRing2
										{
											OFFSET 5.62556 0.00000 0.00000
											CHANNELS 3 Zrotation Xrotation Yrotation
											JOINT LeftHandRing3
											{
												OFFSET 3.56744 0.00000 0.00000
												CHANNELS 3 Zrotation Xrotation Yrotation
												End site
												{
													OFFSET 0.00000 0.00000 0.00000
												}
											}
										}
									}
									JOINT LeftHandPinky1
									{
										OFFSET 11.11390 0.00000 -6.03719
										CHANNELS 3 Zrotation Xrotation Yrotation
										JOINT LeftHandPinky2
										{
											OFFSET 4.52789 0.00000 0.00000
											CHANNELS 3 Zrotation Xrotation Yrotation
											JOINT LeftHandPinky3
											{
												OFFSET 2.46976 0.00000 0.00000
												CHANNELS 3 Zrotation Xrotation Yrotation
												End site
												{
													OFFSET 0.00000 0.00000 0.00000
												}
											}
										}
									}
								}
							}
						}
					}
					JOINT pCube4
					{
						OFFSET 0.00000 10.91090 1.10792
						CHANNELS 3 Zrotation Xrotation Yrotation
						End site
						{
							OFFSET 0.00000 0.00000 0.00000
						}
					}
				}
			}
		}
	}
	JOINT RightUpLeg
	{
		OFFSET -9.98441 0.00000 0.00000
		CHANNELS 3 Zrotation Xrotation Yrotation
		JOINT RightLeg
		{
			OFFSET 0.00000 -42.11790 0.00000
			CHANNELS 3 Zrotation Xrotation Yrotation
			JOINT RightFoot
			{
				OFFSET 0.00000 -45.00020 -0.00001
				CHANNELS 3 Zrotation Xrotation Yrotation
				JOINT RightForeFoot
				{
					OFFSET 0.00000 -3.74820 0.00000
					CHANNELS 3 Zrotation Xrotation Yrotation
					JOINT RightToeBase
					{
						OFFSET 0.00000 0.06325 14.43120
						CHANNELS 3 Zrotation Xrotation Yrotation
						End site
						{
							OFFSET 0.00000 0.00000 0.00000
						}
					}
				}
			}
		}
	}
	JOINT LeftUpLeg
	{
		OFFSET 9.98441 0.00000 0.00000
		CHANNELS 3 Zrotation Xrotation Yrotation
		JOINT LeftLeg
		{
			OFFSET 0.00000 -42.11800 0.00000
			CHANNELS 3 Zrotation Xrotation Yrotation
			JOINT LeftFoot
			{
				OFFSET 0.00000 -45.00070 0.00000
				CHANNELS 3 Zrotation Xrotation Yrotation
				JOINT LeftForeFoot
				{
					OFFSET 0.00000 -3.74824 0.00000
					CHANNELS 3 Zrotation Xrotation Yrotation
					JOINT LeftToeBase
					{
						OFFSET 0.00000 0.06325 14.43110
						CHANNELS 3 Zrotation Xrotation Yrotation
						End site
						{
							OFFSET 0.00000 0.00000 0.00000
						}
					}
				}
			}
		}
	}
}
MOTION
Frames: 4
Frame Time: 0.050000
0.044639869932771886 -0.011424667715191078 -0.03706499120530365 0.008604327159836072 0.002270499538316718 -0.021018019743385182 -3.556152735365136 7.365882432451314 -0.6910640335129359 -0.6115647886917006 2.9628620490923048 0.32255945163259997 -0.8377086789073704 0.29921536496325796 -1.8560923769605577 -0.2993848409575801 0.3429416772034471 -1.0373262745562628 -0.5403200820499602 8.75874617340085 0.3594930892944723 -0.15809952902931013 -0.6314297981501342 -1.4467093512212283 -0.2611245812454927 -14.315168285317235 -0.040386822256496493 4.041837787400656 -0.15816854716294632 -10.474144139217518 70.74852048884021 -7.300874931426508 30.992278892823364 39.360509971848444 15.352333665876685 103.9374135001265 20.980544841315428 -0.06093324250548228 -12.063968734244009 4.500037313212124 -0.08557885520163216 -1.594688485309463 -0.046506659563512895 -0.02117659681553695 -56.241218996321564 0.03781646488484799 -0.018320305949417075 -56.18824004162646 -38.76331378393754 0.026114442929110124 0.005178830589209619 0.04097460990262992 0.0006253907713850703 -0.036072485918074396 -0.02074628160953494 0.0069714874610281585 -0.00306760401353861 -36.732218054131046 0.012779082922009572 0.021431228813772865 0.0014641839895863714 -0.02995871833539991 -0.006288917383175021 0.04034560292046195 0.00806342538501763 0.012708230884955873 -19.778858392900254 -0.0012850322077938268 -0.03623368493575205 0.025275135898027733 -0.0028772375423470136 -0.012029177679298448 0.003651076548710842 -0.01055232337853775 0.016005456735132595 24.037097348619167 0.00993894464619276 0.03548910689353791 28.847528090243333 -0.01706641199982656 0.030592561272098442 28.84679909382288 0.0031967809722980777 0.010334767175546818 -0.872960346370359 0.4615194434117643 8.881315615887194 -59.648495761904385 16.576741121417786 -37.274614064837046 -25.124973056427663 12.750842006503468 -101.87613350892545 -17.23008258120261 1.1931539553827988 -1.874266290275805 -0.4760682062881338 0.05336726035995444 -8.100312445550498 -0.012747919648741729 0.025812966082569954 44.55674059107792 0.026857943992087848 -0.019990079483807592 44.60017494727062 12.441233701796772 -0.03094505380249634 0.03057623592092273 0.014158435622952766 -0.009459419355315574 0.019808039506024527 0.013552518913384637 -0.010919915844076018 -0.0201839109180336 11.090116929243585 -0.043880346083459025 -0.03585409283495484 0.002528623681459993 0.025235605350757816 -0.041327378896428804 0.03446277031776304 -0.009504074280348928 -0.008845402789874819 4.820355940979636 0.04648963785313404 -0.022955214958693914 -0.0030835013465413514 -0.004257973265991588 -0.03055067121707769 -0.03806075859166799 0.030524275656958286 -0.004843755416316164 -5.56362190421642 -0.012562634613411358 -0.04595372870703469 -6.738198830989838 -0.00852671279025618 0.043958263785154716 -6.75508209015828 -0.022260416248409905 -0.0009193044661457973 0.04417698069693475 0.009502103731317746 -0.007495145953678998 8.040706621109624 3.487998900264269 -19.188285547656157 -0.023489746270357322 10.36205219699493 -0.006620256753833983 -5.630890050257754 -15.652560193327345 3.1836815566904315 -0.02871818796134878 0.021675983178003264 0.012137327652682358 -0.03378044672498638 4.682702593924841 0.018297660704307484 12.438345927117023 -8.231170847384336 6.92550038653621 0.038312904648566785 46.34906813194906 0.005842437743065752 -4.302429015945364 -14.769950463094688 -3.8768159680455403 0.03289917923662451 -0.04602817276663344 -0.017219405527141074 -0.046059230516097 -10.763186068378454 -0.01797564970355319 
-0.009066172431973716 -0.015422867925883222 0.044085536763932225 0.022448273220921668 0.039117611740170914 -0.023735610920861093 -3.5716912869893673 7.409259729183974 -0.7131475012913907 -0.6538381776293094 2.9935903138438547 0.3287498351613267 -0.7805026186910313 0.3341956602604511 -1.9248403080124363 -0.19148663199612556 0.460653986665992 -1.049541611863112 -0.5849728934629724 8.794352264402248 0.3048932460083032 -0.15132855380264773 -0.6585017636896076 -1.3884695809018464 -0.35491952089758494 -14.419728343192002 -0.004660053082268963 4.069204319441417 -0.17585168222692255 -10.398635752256517 70.9346681435352 -6.906387483432899 31.595374430895536 42.96787472464847 16.30021779697167 102.95094134793882 21.200082187709384 -0.07131651577253413 -12.60893425076164 4.557214720662721 -0.14355286490950936 -1.5715830580291226 0.042584919022737526 0.048776665136879324 -56.24282353935166 0.0026104127320935393 -0.03318858266147525 -56.22901800765007 -38.78995147289043 0.04005401733715776 0.0287758312433758 0.014068066661132753 0.017324093097344093 -0.04390958227035356 -0.005328678830317855 -0.010822404265319788 -0.02844898186899832 -36.732423224236086 -0.0016597240731783599 0.001480171377840912 -0.024295288283576456 0.003906002607482316 -0.024312499596396607 0.01915829551251178 -0.024539887780937714 0.03510759424220541 -19.727783379022362 0.023704822981848547 -0.025014815063810307 0.03932430540328394 0.027070205900163968 0.006774633446191518 -0.0013695261741752914 0.011735127445688288 0.016435752393259905 24.025999419671468 0.02871781123176109 -0.02240054618669852 28.911457424703173 -0.026002172310875857 0.013774876591734726 28.89964878671331 0.010916184142423239 0.049435669880135424 -0.8185705899456662 0.4223845712145828 8.757142893577528 -58.7384864864506 17.3931724964945 -38.59334066263559 -26.044861823225162 14.110818499950653 -100.51166761971677 -18.580642897542322 1.4277709143454884 -2.0300583298682366 -0.4359307439246931 0.1090733804725785 -8.150282008469139 0.013611205886824507 -0.017992863594894017 44.55421123618402 -0.031294085599622025 -0.0070920223913739245 44.59043464062622 12.425298377324888 0.018819547004981594 0.04382665900554357 0.0005788136477514486 0.03749863378484346 0.04871017323459359 -0.005044780467126197 -0.03749300527595273 0.03400187478575707 11.064731320178874 -0.046507862547926444 -0.004350582924638668 -0.02150788837026382 -0.01945971929562799 -0.0014336767884490663 -0.008348871902927999 -0.0011610787434705463 0.0460125477668769 4.73998834016038 0.030935908588098773 0.017786274249447166 0.036615337798128145 0.03249637322218829 0.0160372374586328 0.011930466795098876 0.032937151111185496 0.02750733913098037 -5.603798511388255 -0.047537680689739834 -0.014301082309553423 -6.765649731989178 0.027567402715745752 0.007890812667361238 -6.713637662195582 0.01809918261632444 -0.005830376937784104 0.030300491604066556 0.000369000148329637 0.04238221167593495 8.072187101467247 3.448852796595427 -19.1966039757266 -0.044298849965856466 10.444507467873807 -0.03284427028003921 -5.648896150957877 -15.649558338090293 3.1958330275554796 -0.01703695422038591 -0.00897699793835058 -0.0061550315378381334 -0.026459396104022686 4.715843266130316 0.04826688498512688 12.435779585662026 -8.202176160254032 6.865070898390109 0.024082552631932336 46.36131433710948 -0.003664263746897954 -4.327253720126126 -14.781535214989487 -3.8078002696145274 -0.007507037754248898 2.951173320771355e-05 0.02791391121205512 0.047602414407448994 -10.746008530524179 0.013193270589460314 
-0.04533591339919473 0.0029167784782882246 0.043751280559034725 0.002877967355797385 0.03055282635989752 0.03480087911008736 -3.513442979650257 7.4086275221059985 -0.7478859316504338 -0.6631106646530043 3.01124936041299 0.34512487336031916 -0.7937796359430459 0.3790374983911751 -2.0032588274582968 -0.07827705779819209 0.4589801274923313 -1.0886233752879912 -0.6057713233685834 8.797930343509433 0.3093217823924023 -0.1915276972887774 -0.7434341039288656 -1.4565588999071495 -0.36560497569746414 -14.544823219359639 -0.059282710875710014 4.20217676373891 -0.2200585268389004 -10.540318122421283 70.61083380541062 -5.856216409110133 31.390813533098658 45.09017723001006 16.386157572739805 102.20806410616446 21.208006751427554 -0.028377937443796842 -12.866875241319637 4.575739891989807 -0.1280380568063021 -1.5491288265341003 0.006906224342626165 0.004419888690394411 -56.20133982471075 0.00030808671533613175 0.00519484994367315 -56.189896150124554 -38.80184082374152 -0.009794013567530827 -0.04776943905990974 0.017475870371710712 -0.03964924822637455 0.0063773088198661905 -0.00826313455128563 -0.037309538269365124 0.030603744067066743 -36.692087944841504 0.005706648954541521 0.013211490231237941 -0.018902045266233715 0.01196051916120109 -0.020935391910518058 0.004185889732413698 -0.01771666228013835 -0.04008881180884826 -19.722311690588686 -0.005624581937819235 -0.048686546105874716 -0.024947709855513533 -0.02267727315495328 -0.017587994713362143 0.006661412493412304 0.021407042191618982 -0.015281364766082222 24.006027938706183 -0.020408051500798344 -0.03432588112419415 28.8903249874664 -0.015314164062433716 0.005558305562961063 28.85961828719267 0.003182525230536612 -0.03760987175121759 -0.9029469187473054 0.40507440461950206 8.820592581907029 -57.6158886255173 18.787117957878394 -39.055607013805535 -25.282286162305606 14.486473598381771 -98.95154085721934 -19.55149117518795 1.6668165437051015 -2.0492808106401403 -0.4935080278881884 0.02153816477007446 -8.157210937741963 0.039755641535455535 -0.00018135860456479442 44.57760706094292 0.04393290104677251 0.03705452909398917 44.614394152480536 12.492160279880956 0.04222695095511196 -0.03951211025725447 -0.03124142573878131 0.00022371597781416255 0.02971182113615357 -0.006172402355189574 0.0014243959388596243 -0.03524688752862137 11.112039135813554 0.0051183968079815435 0.037785654532230255 -0.0025104528002639417 0.021384121776134014 -0.02235971648280446 0.029263871675513392 -0.034086187742824965 -0.030734029145150416 4.741551020721471 -0.0010484521263965615 0.04066122492630279 -0.02084557023443892 -0.021407207319835996 -0.009009171821235564 0.021977527004763728 0.03676067803941155 -0.010122874239809596 -5.618046065639193 -0.0017799802828663467 -0.010306396450782032 -6.7579623307659205 -7.624659449160095e-05 0.04488208114066433 -6.738998904986032 0.03563934351435161 -0.007770495128358229 0.03862676362198137 -0.011675679439412464 0.04923927501261037 8.013954421273908 3.511642269303847 -19.219405897851463 -0.022547172283896723 10.362991535322926 0.014297796488035181 -5.6124888909895025 -15.674108934259543 3.1630736385314155 0.03215565367085946 0.0067110160242695996 0.003045967192817488 -0.0010225204014839022 4.668450323713174 0.007651803187018452 12.456725260160441 -8.264605975706106 6.863711217996074 -0.030155538027455887 46.41781990847145 0.010838463117976682 -4.311017859948411 -14.72720821239506 -3.8552411174121737 0.0018688191092168696 -0.021047266925062598 -0.021565061019860533 -0.03917517736131518 -10.71179728593936 0.024088683589337488 
0.018891065520647322 -0.02695897369024078 0.003470127662665503 -0.023068081456944323 0.04342378308630429 -0.028350099068570285 -3.422874802546814 7.294398284316113 -0.7730873849882469 -0.679343987806327 3.0827056817798586 0.37538163237686795 -0.7362351662345377 0.42642012726802 -2.0848237696227794 0.02193549618620904 0.49621616850713535 -1.0966549869800335 -0.5405768510283318 8.759296775618253 0.2021490785601611 -0.19072582536021654 -0.8727192637730125 -1.4334116405593176 -0.3236015891394818 -14.592051288662756 -0.0646011984906551 4.584242149082642 -0.36802512757810574 -10.629506592618023 69.98565917374991 -4.119551589420452 30.08865234313754 47.20266275923186 16.37753611623321 101.843153428519 21.499797836517217 0.00031104102553596025 -13.175117833108827 4.482590146476729 -0.09641385273302061 -1.6210390935042287 -0.03597937426994539 -0.02821761577128524 -56.259818057006584 0.04442510436340217 0.02515856333850396 -56.26453121348979 -38.80231155208551 -0.005072875744118603 -0.014588186484827702 -0.022056157409422197 -0.014376536153713287 -0.0021839723623319957 -0.031818141997960764 -0.007172132536174181 0.012301667426059868 -36.72089002227751 -0.012955477273784039 0.004758450051509623 -0.019358876912493887 -0.043111272039274603 -0.016574731089796294 -0.01970804502358938 0.04560584773678093 0.013795513769633002 -19.761089904477075 -0.029919636224837967 0.03195212647595145 -0.0019764045188436735 0.003223470581482197 0.009970548838066027 0.018572422284503065 -0.04711085982013989 0.021419310266744186 24.047888465765592 -0.005751034989727122 -0.004945182787462859 28.8568435788883 0.02332864469174765 0.037183900465002036 28.83531253439675 -0.008331360652547005 0.0010703372271412828 -1.083268249354432 0.33301826653483574 8.77215026782611 -56.23568362990057 20.646317347649607 -38.87995052833987 -24.173456830398187 14.40276471184334 -98.1574235815635 -20.42047558829601 1.8191093586180649 -2.187936202996994 -0.4523213774139726 0.09994297330985893 -8.08303153683549 0.048051729970070414 0.0412938169138701 44.55503550774588 0.026874476167402423 -0.0317050825926499 44.578614373346454 12.504785248049364 -0.0030398667745133853 0.033487817269798895 0.034313296107964394 0.02965662498649954 0.04320413556575555 0.027371661907366413 -0.02493537515738311 -0.022833132037272177 11.134338438644368 -0.0300675333820467 0.025243443981362555 -0.035446648020367406 0.028609386096932928 0.025046130389978535 -0.029886752832882016 -0.021164373285131537 -0.04162768709059888 4.731252423382538 -0.04233170569108973 -0.0012294962466796535 0.03733617744106397 -0.00026554799200271184 -0.000559108205626935 0.04144593321381945 -0.02095347544779987 0.027921965509650235 -5.578010001331069 -0.004736391240077572 0.047938420071702244 -6.705264163608241 0.012878068541303873 0.010083445398003026 -6.718501196965736 0.008361051954568065 0.004321996586237532 -0.02351097605825125 0.011800512476574909 -0.049293755707516526 8.001312876216609 3.497482472294025 -19.21902252120323 -0.03876689844640459 10.410884864418579 0.05040308405601515 -5.600302497070975 -15.652631186146062 3.1677255794521932 0.005652449803557534 -0.0033078134936077126 0.014813562799142227 0.002510358215616661 4.723656399049743 0.03570952228127001 12.501026018290531 -8.216303738684887 6.882012346798773 0.013610297871691815 46.37770476061645 -0.02233284151463492 -4.3586829449709805 -14.752748983278874 -3.8192790352170647 0.03026453020350738 -0.002150418001906008 -0.005503759855586956 0.03547084284922209 -10.71467485539763 -0.029815222011134297 
